<svg height="442pt" viewBox="-14 -16 442.67405 442" width="442pt" xmlns="http://www.w3.org/2000/svg"><path d="m414.789062 353.101562c-.011718-2.304687-.933593-4.511718-2.5625-6.140624l-114.089843-114.089844c24.328125-42.035156 17.394531-95.167969-16.898438-129.558594-18.933593-18.960938-44.304687-30.105469-71.070312-31.222656-18.320313-51.445313-72.097657-81.175782-125.410157-69.339844-53.308593 11.835938-89.445312 61.542969-84.265624 115.902344 5.179687 54.359375 50.046874 96.347656 104.628906 97.910156 10.660156 28.472656 32.910156 51.082031 61.207031 62.191406 28.300781 11.117188 59.984375 9.691406 87.175781-3.921875l33.847656 33.851563 3.765626 25.628906c.492187 3.320312 2.839843 6.074219 6.042968 7.074219l24.128906 7.550781 4.613282 20.277344c.679687 3.007812 2.902344 5.433594 5.835937 6.382812l23.792969 7.6875 3.796875 19.242188c.808594 4.101562 4.402344 7.054687 8.582031 7.054687h.105469l38.308594-.460937c4.40625-.050782 8.085937-3.371094 8.585937-7.75l.039063-.332032c.039062-.339843.058593-.6875.058593-1.035156zm-314.601562-154.332031c-21.207031-1.824219-41.085938-11.109375-56.089844-26.210937-25.9375-25.863282-33.789062-64.789063-19.894531-98.683594 13.890625-33.894531 46.800781-56.113281 83.429687-56.332031 36.632813-.214844 69.800782 21.605469 84.097657 55.332031-29.222657 3.738281-55.617188 19.363281-72.941407 43.195312-17.328124 23.828126-24.058593 53.75-18.601562 82.699219zm125.851562.875c-14.847656 14.878907-37.976562 17.597657-55.871093 6.574219-17.898438-11.019531-25.867188-32.894531-19.269531-52.847656 6.605468-19.953125 26.054687-32.757813 46.996093-30.925782-.917969 5.910157-2.414062 11.71875-4.476562 17.335938-13.886719.210938-25.550781 10.488281-27.519531 24.234375-1.972657 13.746094 6.351562 26.882813 19.617187 30.984375 13.269531 4.097656 27.546875-2.058594 33.675781-14.515625 6.132813-12.460937 2.292969-27.527344-9.050781-35.539063 2.046875-5.734374 3.605469-11.636718 4.652344-17.636718 12.851562 6.640625 21.769531 19.019531 23.992187 33.316406s-2.515625 28.796875-12.746094 39.023438zm0 0"/></svg>